{"title":"Stoker 2013 BRRip 480p x264 AAC - VYTO [P2PDL]","uid":8561378,"size":335708767,"categoryP":"video","categoryS":"movies","magnet":"?xt=urn:btih:d9d7c9ebf19663e236e233af6addbbff6cd7ceaf&amp;dn=Stoker+2013+BRRip+480p+x264+AAC+-+VYTO+%5BP2PDL%5D&amp;tr=udp%3A%2F%2Ftracker.openbittorrent.com%3A80&amp;tr=udp%3A%2F%2Fopen.demonii.com%3A1337&amp;tr=udp%3A%2F%2Ftracker.coppersurfer.tk%3A6969&amp;tr=udp%3A%2F%2Fexodus.desync.com%3A6969","seeders":0,"leechers":1,"uploader":"ValidusVyto","files":-1,"time":1370894116,"description":"_______ Visit us at our Semi Public Bittorrent Community ________\n  &lt;a href=&quot;\nhttp://p2pdl.com&quot; rel=&quot;nofollow&quot; target=&quot;_NEW&quot;&gt;\nhttp://p2pdl.com&lt;/a&gt;  _____________________________ &lt;a href=&quot; http://p2pdl.com&quot; rel=&quot;nofollow&quot; target=&quot;_NEW&quot;&gt; http://p2pdl.com&lt;/a&gt;\n\n\nStoker 2013 BRRip 480p x264 AAC - VYTO\n\n\nGenre: Drama | Mystery | Thriller\nPlot: After India's father dies, her Uncle Charlie, who she never knew existed,\ncomes to live withher and her unstable mother. She comes to suspect this mysterious,\ncharming man has ulterior motives and becomes increasingly infatuated with him.   \nDirector: Chan-wook Park\nStars:  Mia Wasikowska, Nicole Kidman, Matthew Goode.\nRated: R for disturbing violent and sexual content.\n\n\nInfo: &lt;a href=&quot;\nhttp://www.imdb.com/title/tt1682180/&quot; rel=&quot;nofollow&quot; target=&quot;_NEW&quot;&gt;\nhttp://www.imdb.com/title/tt1682180/&lt;/a&gt;\n\n\nFormat                         : MPEG-4\nFile size                      : 317 MiB\nDuration                       : 1h 38mn\nOverall bit rate mode          : Variable\nOverall bit rate               : 448 Kbps\nSource                         : 720p.BluRay.DTS.x264-PHD\n\nVideo\nFormat                         : AVC\nBit rate                       : 405 Kbps\nWidth                          : 720 pixels\nHeight                         : 304 pixels\nDisplay aspect ratio           : 2.35:1\nFrame rate mode                : Constant\nFrame rate                     : 23.976 fps\nStream size                    : 286 MiB (90%)\nWriting library                : x264 core 130 r2273\n\nAudio\nFormat                         : AAC\nBit rate mode                  : Variable\nBit rate                       : 40.0 Kbps\nChannel(s)                     : 2 channels\nChannel positions              : Front: L R\nSampling rate                  : 48.0 KHz\nStream size                    : 28.3 MiB (9%)\nLanguage                       : English\n\nSubtitle                       : Yes(English)\n\nScreens:\n &lt;a href=&quot;\nhttp://ultraimg.com/images/q0fBk.png&quot; rel=&quot;nofollow&quot; target=&quot;_NEW&quot;&gt;\nhttp://ultraimg.com/images/q0fBk.png&lt;/a&gt; &lt;a href=&quot;\nhttp://ultraimg.com/images/JY1vT.png&quot; rel=&quot;nofollow&quot; target=&quot;_NEW&quot;&gt;\nhttp://ultraimg.com/images/JY1vT.png&lt;/a&gt; &lt;a href=&quot;\nhttp://ultraimg.com/images/dJOut.png&quot; rel=&quot;nofollow&quot; target=&quot;_NEW&quot;&gt;\nhttp://ultraimg.com/images/dJOut.png&lt;/a&gt; &lt;a href=&quot;\nhttp://ultraimg.com/images/00gOx.png&quot; rel=&quot;nofollow&quot; target=&quot;_NEW&quot;&gt;\nhttp://ultraimg.com/images/00gOx.png&lt;/a&gt; &lt;a href=&quot;\nhttp://ultraimg.com/images/bwD3g.png&quot; rel=&quot;nofollow&quot; target=&quot;_NEW&quot;&gt;\nhttp://ultraimg.com/images/bwD3g.png&lt;/a&gt; &lt;a href=&quot;\nhttp://ultraimg.com/images/g7cR.png&quot; rel=&quot;nofollow&quot; target=&quot;_NEW&quot;&gt;\nhttp://ultraimg.com/images/g7cR.png&lt;/a&gt; &lt;a href=&quot;\nhttp://ultraimg.com/images/kgZqw.png&quot; rel=&quot;nofollow&quot; target=&quot;_NEW&quot;&gt;\nhttp://ultraimg.com/images/kgZqw.png&lt;/a&gt; &lt;a href=&quot;\nhttp://ultraimg.com/images/4vfT.png&quot; rel=&quot;nofollow&quot; target=&quot;_NEW&quot;&gt;\nhttp://ultraimg.com/images/4vfT.png&lt;/a&gt;\n\n----------------------------------------------------------------------------------------------------\n\n\nEncoded using revolutionary 10bit encoding, which enables us to provide you more crispier \nand sharper images at small sizes, just make sure you follow our instructions without a fault.\nRecommend to you to use latest version of VLC player. Install K-Lite Codec Pack or shark007 codecs\nin case of any kind of problem in playback (For non-VLC Media Player users). Alternatively, install\nCore AVC codecs, the fastest decoder that there is coupled with Community Center Codec Pack and play\non Windows Media Player Classic. Check sample to be sure.\nEnjoy!\n\nEncoder Notes:Looking For Early Access To Anything You Can Provide DVDScr, R5, DVDR, BluRay, Direct\nAudio, Music Releases and Seedboxes. We require dedicated servers, so as to do more \nand fast releases of movies.\nIf You Got anything to offer please contact us at &quot;&lt;a class=&quot;__cf_email__&quot; href=&quot;/cdn-cgi/l/email-protection&quot; data-cfemail=&quot;a2c1cdccd6c3c1d6e2d290d2c6ce8cc1cdcf&quot;&gt;[email&amp;#160;protected]&lt;/a&gt;&lt;script cf-hash='f9e31' type=&quot;text/javascript&quot;&gt;\n/* &lt;![CDATA[ */!function(){try{var t=&quot;currentScript&quot;in document?document.currentScript:function(){for(var t=document.getElementsByTagName(&quot;script&quot;),e=t.length;e--;)if(t[e].getAttribute(&quot;cf-hash&quot;))return t[e]}();if(t&amp;&amp;t.previousSibling){var e,r,n,i,c=t.previousSibling,a=c.getAttribute(&quot;data-cfemail&quot;);if(a){for(e=&quot;&quot;,r=parseInt(a.substr(0,2),16),n=2;a.length-n;n+=2)i=parseInt(a.substr(n,2),16)^r,e+=String.fromCharCode(i);e=document.createTextNode(e),c.parentNode.replaceChild(e,c)}}}catch(u){}}();/* ]]&gt; */&lt;/script&gt;&quot;.\n\nFace book Fan Page:  \n","torrent":{"xt":"urn:btih:d9d7c9ebf19663e236e233af6addbbff6cd7ceaf","amp;dn":"Stoker+2013+BRRip+480p+x264+AAC+-+VYTO+%5BP2PDL%5D","amp;tr":["udp%3A%2F%2Ftracker.openbittorrent.com%3A80","udp%3A%2F%2Fopen.demonii.com%3A1337","udp%3A%2F%2Ftracker.coppersurfer.tk%3A6969","udp%3A%2F%2Fexodus.desync.com%3A6969"],"infoHash":"d9d7c9ebf19663e236e233af6addbbff6cd7ceaf","infoHashBuffer":{"type":"Buffer","data":[217,215,201,235,241,150,99,226,54,226,51,175,106,221,187,255,108,215,206,175]},"announce":[],"urlList":[]}}